<?xml version="1.0" encoding="iso-8859-1"?>
<!-- Generator: Adobe Illustrator 19.0.0, SVG Export Plug-In . SVG Version: 6.00 Build 0)  -->
<svg version="1.1" id="Layer_1" xmlns="http://www.w3.org/2000/svg" xmlns:xlink="http://www.w3.org/1999/xlink" x="0px" y="0px"
	 viewBox="0 0 485 485" style="enable-background:new 0 0 485 485;" xml:space="preserve">
<g>
	<g id="XMLID_40_">
		<g>
			<rect x="162.5" y="57.5" style="fill:#AFB6BB;" width="160" height="50"/>
			<path style="fill:#E7ECED;" d="M242.5,387.5c63.5,0,115-51.5,115-115s-51.5-115-115-115s-115,51.5-115,115S179,387.5,242.5,387.5
				z M447.5,155c0-9.6-7.9-17.5-17.5-17.5h-55c-9.6,0-17.5,7.9-17.5,17.5s7.9,17.5,17.5,17.5h55C439.6,172.5,447.5,164.6,447.5,155z
				 M467.5,107.5c5.5,0,10,4.5,10,10v300c0,5.5-4.5,10-10,10h-450c-5.5,0-10-4.5-10-10v-300c0-5.5,4.5-10,10-10h145h160H467.5z"/>
			<path style="fill:#AFB6BB;" d="M430,137.5c9.6,0,17.5,7.9,17.5,17.5s-7.9,17.5-17.5,17.5h-55c-9.6,0-17.5-7.9-17.5-17.5
				s7.9-17.5,17.5-17.5H430z"/>
			<path style="fill:#31C0D8;" d="M242.5,347.5c-41.4,0-75-33.6-75-75s33.6-75,75-75s75,33.6,75,75S283.9,347.5,242.5,347.5z"/>
			<path style="fill:#AFB6BB;" d="M242.5,347.5c41.4,0,75-33.6,75-75s-33.6-75-75-75s-75,33.6-75,75S201.1,347.5,242.5,347.5z
				 M242.5,157.5c63.5,0,115,51.5,115,115s-51.5,115-115,115s-115-51.5-115-115S179,157.5,242.5,157.5z"/>
		</g>
		<g>
			<path style="fill:#231F20;" d="M467.5,100h-40V85h-60v15H330V50H155v50H17.5C7.851,100,0,107.851,0,117.5v300
				c0,9.649,7.851,17.5,17.5,17.5h450c9.649,0,17.5-7.851,17.5-17.5v-300C485,107.851,477.149,100,467.5,100z M170,65h145v35H170V65
				z M470,417.5c0,1.355-1.145,2.5-2.5,2.5h-450c-1.355,0-2.5-1.145-2.5-2.5v-300c0-1.355,1.145-2.5,2.5-2.5h450
				c1.355,0,2.5,1.145,2.5,2.5V417.5z"/>
			<path style="fill:#231F20;" d="M242.5,190c-45.491,0-82.5,37.009-82.5,82.5s37.009,82.5,82.5,82.5s82.5-37.009,82.5-82.5
				S287.991,190,242.5,190z M242.5,340c-37.22,0-67.5-30.28-67.5-67.5s30.28-67.5,67.5-67.5s67.5,30.28,67.5,67.5
				S279.72,340,242.5,340z"/>
			<path style="fill:#231F20;" d="M242.5,150C174.953,150,120,204.953,120,272.5S174.953,395,242.5,395S365,340.047,365,272.5
				S310.047,150,242.5,150z M242.5,380C183.224,380,135,331.776,135,272.5S183.224,165,242.5,165S350,213.224,350,272.5
				S301.776,380,242.5,380z"/>
			<path style="fill:#231F20;" d="M195,272.5h15c0-17.92,14.58-32.5,32.5-32.5v-15C216.309,225,195,246.309,195,272.5z"/>
			<path style="fill:#231F20;" d="M430,130h-55c-13.785,0-25,11.215-25,25s11.215,25,25,25h55c13.785,0,25-11.215,25-25
				S443.785,130,430,130z M430,165h-55c-5.42,0-10-4.58-10-10s4.58-10,10-10h55c5.42,0,10,4.58,10,10S435.42,165,430,165z"/>
			<rect x="37.5" y="145" style="fill:#231F20;" width="60" height="15"/>
			<rect x="37.5" y="175" style="fill:#231F20;" width="30" height="15"/>
		</g>
	</g>
</g>
<g>
</g>
<g>
</g>
<g>
</g>
<g>
</g>
<g>
</g>
<g>
</g>
<g>
</g>
<g>
</g>
<g>
</g>
<g>
</g>
<g>
</g>
<g>
</g>
<g>
</g>
<g>
</g>
<g>
</g>
</svg>
